<?xml version="1.0" encoding="UTF-8"?> <svg xmlns="http://www.w3.org/2000/svg" viewBox="0 0 785.73 134.29"><defs><style>.cls-1{fill:#00b0f0;}.cls-2{fill:#353746;}.cls-3{fill:none;stroke:#353746;stroke-miterlimit:10;stroke-width:4px;}</style></defs><g id="Layer_2" data-name="Layer 2"><g id="Layer_1-2" data-name="Layer 1"><g id="Layer_2-2" data-name="Layer 2"><g id="Layer_1-2-2" data-name="Layer 1-2"><path class="cls-1" d="M61.44,21.24,2.06,67.07a4.15,4.15,0,0,0-.86,5.81l.09.11a4.15,4.15,0,0,0,5.8.86l.12-.09L66.7,27.94a4.16,4.16,0,0,0,.86-5.82L67.48,22h0a4.53,4.53,0,0,0-6-.77Z"></path><path class="cls-1" d="M72.31,38.54a4.15,4.15,0,0,0-5.82-.85l-.11.08L2.09,87.26a4.17,4.17,0,0,0-.84,5.84l.07.09A4.15,4.15,0,0,0,7.14,94L7.25,94,71.53,44.47A4.36,4.36,0,0,0,72.31,38.54Z"></path><path class="cls-1" d="M.81,52.85a4.15,4.15,0,0,0,5.82.85l.11-.08h0L63.66,9.84,96.21,34.59,72.11,53.18a4.2,4.2,0,1,0,4,7.38,4.56,4.56,0,0,0,.59-.38,1.54,1.54,0,0,0,.44-.33l28.47-22h0l.22-.22h0l.45-.45a4.36,4.36,0,0,0-.8-5.92L66.33,1.12a3.5,3.5,0,0,0-2-.78h-.89a4.53,4.53,0,0,0-2,.79L1.92,46.92A4.11,4.11,0,0,0,.64,52.6,2.2,2.2,0,0,0,.81,52.85Z"></path><path class="cls-1" d="M121.28,55.45l-59.49,45.8a4.14,4.14,0,0,0-.88,5.79,1.13,1.13,0,0,0,.1.13h0a4.15,4.15,0,0,0,5.8.87l.12-.09,59.49-45.8a4.14,4.14,0,0,0,.86-5.8l-.09-.13a4.26,4.26,0,0,0-5.92-.77Z"></path><path class="cls-1" d="M56.07,90.64a4.17,4.17,0,0,0,5.82.87l.11-.09,64.4-49.5a4.22,4.22,0,1,0-5.15-6.69L57,84.72A4.25,4.25,0,0,0,56.07,90.64Z"></path><path class="cls-1" d="M127.57,76.45h0a4.16,4.16,0,0,0-5.81-.87l-.12.1L64.72,119.46,32.17,94.59,56.27,76a4.22,4.22,0,1,0-5.15-6.69L22.66,91.25h0l-.22.23h0l-.45.44a4.36,4.36,0,0,0,.79,5.93l39.5,30.22a3.57,3.57,0,0,0,2,.78h1a4.44,4.44,0,0,0,2-.78l59.49-45.8A4.21,4.21,0,0,0,127.57,76.45Z"></path><path class="cls-2" d="M193.66,34.55h-22.8V6.5h0a6.5,6.5,0,0,0-13,0h0L158,99.31a6.5,6.5,0,0,0,13,0l-.13-52.24h22.8c13.52,0,19.45,5.78,19.46,15.84l.06,36.43h0a6.5,6.5,0,0,0,13,0l0-36.43C226.3,45,215.56,34.52,193.66,34.55Z"></path><path class="cls-2" d="M288.64,35.19H270.09c-17.88,0-28.92,10.32-28.89,32s11.22,32.05,29,32l29.5,0v3c0,9.61-3.22,13.63-13.28,13.65l-38.22.06a6.5,6.5,0,0,0-.42,13h.44l39.9-.06c18.66,0,25.35-7.53,25.32-26.52l-.06-38.67C313.13,44.42,304.62,35.16,288.64,35.19Zm11,51.83-28.13,0c-11.51,0-16.77-5.78-16.79-19.41s5.22-19.46,16.73-19.47h13.3c10.73,0,14.87,4.67,14.89,15.5V87Z"></path><path class="cls-2" d="M358.28,48.6l39-.06a6.82,6.82,0,0,0,0-13.64h0L358.17,35c-16.43,0-23,8-23,20.59,0,10.84,4.84,20.56,24.28,20.53H376.1c7,0,10.06,2.22,10.07,7.92s-2.67,7.71-9.15,7.72l-41.12.07a6.88,6.88,0,0,0-.54,13.74h.45l41.34-.06c16.54,0,23.12-8.87,23.1-21.49,0-11-5-19.89-24.39-19.86H359.21c-7.94,0-10.06-2.67-10.07-7.58C349.12,51.29,351.8,48.61,358.28,48.6Z"></path><line class="cls-3" x1="448.47" y1="0.34" x2="448.47" y2="134.29"></line><path class="cls-2" d="M491.9,104.6V29.09H517q12,0,19.94,5.06a31.6,31.6,0,0,1,11.92,13.61,44.49,44.49,0,0,1,4,19q0,11.49-4.36,20A31.44,31.44,0,0,1,536,99.92a37.33,37.33,0,0,1-19,4.68Zm55.51-37.86a38.76,38.76,0,0,0-3.56-16.91,27.28,27.28,0,0,0-10.32-11.64Q526.78,34,517,34H497.32V99.71H517q9.9,0,16.7-4.36A27.35,27.35,0,0,0,544,83.49,39.46,39.46,0,0,0,547.41,66.74Z"></path><path class="cls-2" d="M566.13,36.75V27h5.31v9.78Zm0,67.85V49.3h5.31v55.3Z"></path><path class="cls-2" d="M610.47,105.66A23.69,23.69,0,0,1,600,103.32a24.87,24.87,0,0,1-8.3-6.43,32.22,32.22,0,0,1-5.42-9.15,28.41,28.41,0,0,1-2-10.47,32.06,32.06,0,0,1,1.86-10.85,28.51,28.51,0,0,1,5.32-9.2,26.06,26.06,0,0,1,8.13-6.33,23.14,23.14,0,0,1,10.43-2.34,21.58,21.58,0,0,1,12.6,3.73,35.42,35.42,0,0,1,9.09,9.14v-12h4.89v56.28A21.1,21.1,0,0,1,633,118.22a21.87,21.87,0,0,1-9.58,7.6,33,33,0,0,1-12.86,2.49q-9.69,0-15.37-3.51a27.59,27.59,0,0,1-9.2-9.25l3.62-2.44a20.34,20.34,0,0,0,8.93,8.19,27.85,27.85,0,0,0,12,2.65,25.8,25.8,0,0,0,10.37-2,17.39,17.39,0,0,0,7.55-6.09,17,17,0,0,0,2.81-9.94V93.75a24.43,24.43,0,0,1-9,8.67A23.67,23.67,0,0,1,610.47,105.66Zm1.28-4.57a18.65,18.65,0,0,0,6.8-1.28,23.3,23.3,0,0,0,6.06-3.45,22,22,0,0,0,4.58-4.84,12,12,0,0,0,2.12-5.32V68a21.89,21.89,0,0,0-4.83-7.61,24.36,24.36,0,0,0-7.29-5.21,19.63,19.63,0,0,0-8.29-1.86A18.49,18.49,0,0,0,602,55.47a21.1,21.1,0,0,0-6.64,5.58,25.65,25.65,0,0,0-4.15,7.76,26.93,26.93,0,0,0-1.44,8.56,24,24,0,0,0,1.71,9A25.15,25.15,0,0,0,596.17,94a21.87,21.87,0,0,0,7,5.21A20,20,0,0,0,611.75,101.09Z"></path><path class="cls-2" d="M653.22,36.75V27h5.32v9.78Zm0,67.85V49.3h5.32v55.3Z"></path><path class="cls-2" d="M699.91,102.37c-.36.14-1.07.49-2.13,1.06a20.28,20.28,0,0,1-4,1.54,20,20,0,0,1-5.43.69,13,13,0,0,1-5.37-1.12,9.21,9.21,0,0,1-4-3.37,9.61,9.61,0,0,1-1.49-5.46V53.77H669.7V49.41h7.77V30.48h5.31V49.41h12.87v4.36H682.78V94.45A6.08,6.08,0,0,0,685,99.11a7.41,7.41,0,0,0,4.68,1.55,13.8,13.8,0,0,0,5.74-1.11,24.82,24.82,0,0,0,2.87-1.44Z"></path><path class="cls-2" d="M704.69,88.7a13.25,13.25,0,0,1,3-8.64,19.53,19.53,0,0,1,8.19-5.72,32.36,32.36,0,0,1,12-2.07,55.66,55.66,0,0,1,8.83.74,48.09,48.09,0,0,1,8.19,2V69.84q0-7.62-4.41-12.16T728.3,53.13a24.21,24.21,0,0,0-8.61,1.7,44,44,0,0,0-9.15,4.89l-2.23-3.83a50.3,50.3,0,0,1,10.47-5.47,29,29,0,0,1,10.05-1.87q9.9,0,15.63,5.83t5.75,15.89V97.59a2.75,2.75,0,0,0,.58,1.91,2.63,2.63,0,0,0,1.76.74v4.36a15.32,15.32,0,0,1-1.6.11h-1.06a4.84,4.84,0,0,1-3.14-1.71,5.35,5.35,0,0,1-1.22-3.08V95.56a25.57,25.57,0,0,1-9.84,7.44,30.84,30.84,0,0,1-12.6,2.66,19.8,19.8,0,0,1-9.41-2.22,17,17,0,0,1-6.6-6.1A16.14,16.14,0,0,1,704.69,88.7Zm38.07,4.55a11.86,11.86,0,0,0,1.6-2.64,6.21,6.21,0,0,0,.53-2.33V79.17a42.4,42.4,0,0,0-8-2.22,47.65,47.65,0,0,0-8.5-.75q-8.29,0-13.46,3.29t-5.15,8.89a12.2,12.2,0,0,0,1.8,6.46,13.37,13.37,0,0,0,5.06,4.77,15.18,15.18,0,0,0,7.49,1.8,26.47,26.47,0,0,0,11-2.28A18.09,18.09,0,0,0,742.76,93.25Z"></path><path class="cls-2" d="M766.8,27h5.42V94c0,2.57.53,4.33,1.59,5.3a6,6,0,0,0,4.15,1.44,20.36,20.36,0,0,0,3.51-.32,16.53,16.53,0,0,0,3.19-.85l1.07,4.36a33.76,33.76,0,0,1-4.47,1.17,24.19,24.19,0,0,1-4.57.53,9.7,9.7,0,0,1-7.18-2.72,9.93,9.93,0,0,1-2.71-7.33Z"></path></g></g></g></g></svg> 